<?xml version="1.0" standalone="no"?>
<!DOCTYPE svg PUBLIC "-//W3C//DTD SVG 20010904//EN"
 "http://www.w3.org/TR/2001/REC-SVG-20010904/DTD/svg10.dtd">
<svg version="1.0" xmlns="http://www.w3.org/2000/svg"
 width="32.000000pt" height="32.000000pt" viewBox="0 0 32.000000 32.000000"
 preserveAspectRatio="xMidYMid meet">

<g transform="translate(0.000000,32.000000) scale(0.100000,-0.100000)"
fill="#000000" stroke="none">
<path d="M0 160 l0 -160 125 0 c121 0 125 1 125 22 0 20 -1 20 -18 5 -25 -22
-39 -21 -52 3 l-11 21 -17 -21 c-19 -24 -52 -18 -52 9 0 30 21 92 29 86 5 -2
16 4 25 14 15 16 15 19 2 24 -8 3 -20 16 -26 28 -7 12 -8 19 -2 15 5 -3 17 5
25 18 14 21 14 24 -4 40 -27 22 -19 40 17 43 44 4 65 -18 71 -76 4 -44 2 -51
-19 -61 -19 -10 -21 -10 -10 1 6 7 11 24 11 38 -1 21 -2 22 -6 6 -3 -11 -12
-28 -21 -38 -18 -21 -9 -32 26 -32 23 0 29 -7 40 -42 8 -24 18 -43 23 -43 5 0
9 -4 9 -10 0 -5 -8 -10 -17 -10 -14 0 -15 -2 -5 -9 8 -4 12 -12 10 -17 -1 -5
7 -10 20 -12 20 -3 22 0 22 46 0 46 -2 51 -31 62 -21 9 -29 19 -27 33 2 11 9
22 17 25 9 3 11 0 6 -8 -4 -7 -2 -16 6 -21 23 -14 29 -10 29 20 0 30 -28 50
-49 37 -5 -4 -13 23 -16 59 l-7 65 -124 0 -124 0 0 -160z m90 104 c0 -8 -5
-12 -10 -9 -6 4 -8 11 -5 16 9 14 15 11 15 -7z m-21 -23 c9 -6 6 -8 -13 -8
-14 0 -23 3 -20 8 7 11 15 11 33 0z m24 -143 c-8 -48 -23 -58 -23 -17 0 35 6
49 21 49 5 0 6 -15 2 -32z"/>
<path d="M290 269 c-22 -18 -22 -19 -3 -10 12 6 25 16 28 21 9 15 3 12 -25
-11z"/>
<path d="M180 210 c0 -5 5 -10 10 -10 6 0 10 5 10 10 0 6 -4 10 -10 10 -5 0
-10 -4 -10 -10z"/>
</g>
</svg>
